<?xml version="1.0" encoding="utf-8"?>
<!-- Generator: Adobe Illustrator 24.2.3, SVG Export Plug-In . SVG Version: 6.00 Build 0)  -->
<svg version="1.1" id="Capa_1" xmlns="http://www.w3.org/2000/svg" xmlns:xlink="http://www.w3.org/1999/xlink" x="0px" y="0px"
	 viewBox="0 0 100 50" style="enable-background:new 0 0 100 50;" xml:space="preserve">
<style type="text/css">
	.st0{fill:#8A2BE2;}
</style>
<g>
	<path class="st0" d="M25.8,24.1c3.3,3.5,8.5,6.8,14.3,10.1c-5.8,3.3-11,6.7-14.3,10.2c-4-4.3-8.9-7.5-14.3-10.1
		C16.9,31.7,21.8,28.5,25.8,24.1z"/>
	<path class="st0" d="M59.6,18.8c-0.5,4.2-2.8,5.3-5.6,5.5c-1.3-0.1-2.6-0.5-3.7-1.4c0.3,2.5,1.6,4.7,3.7,6.9l-9.2,0
		c2.1-2.2,3.4-4.4,3.7-6.9c-1.1,0.9-2.4,1.3-3.7,1.4c-2.8-0.2-5.1-1.4-5.5-5.6c-0.4-6,4.6-6,10.2-14.7C55,12.7,60.1,12.8,59.6,18.8z
		"/>
	<path class="st0" d="M76.8,45.6C73.1,44,62,33.4,61.8,33.3l0,0c0,0,0,0,0,0c3.1-2.2,10.4-9.9,14.1-11.5c3.6-1.6,8.1,1.6,8.5,4.9
		c0.5,3.3-1.5,4.7-3.2,6.6l0,0c1.7,1.9,3.7,3.3,3.2,6.6C83.9,43.1,79.6,46.8,76.8,45.6z"/>
</g>
</svg>
